Coordinates
version=1
nRows=13
nColumns=40
inDegrees=yes

Units are S.I. units (second, meters, Newtons, ...)
If the header above contains a line with 'inDegrees', this indicates whether rotational values are in degrees (yes) or radians (no).

endheader
time	pelvis_tilt	pelvis_list	pelvis_rotation	pelvis_tx	pelvis_ty	pelvis_tz	hip_flexion_r	hip_adduction_r	hip_rotation_r	knee_angle_r	knee_angle_r_beta	ankle_angle_r	subtalar_angle_r	mtp_angle_r	hip_flexion_l	hip_adduction_l	hip_rotation_l	knee_angle_l	knee_angle_l_beta	ankle_angle_l	subtalar_angle_l	mtp_angle_l	lumbar_extension	lumbar_bending	lumbar_rotation	arm_flex_r	arm_add_r	arm_rot_r	elbow_flex_r	pro_sup_r	wrist_flex_r	wrist_dev_r	arm_flex_l	arm_add_l	arm_rot_l	elbow_flex_l	pro_sup_l	wrist_flex_l	wrist_dev_l
      0.60400000	     14.75153170	     -3.82398288	     -4.28492606	      0.93469461	      0.93029507	     -0.35684372	    -29.74738307	      2.82923890	     -0.76260408	     24.95620059	      0.43556787	     -5.95361587	      0.00000000	      0.00000000	     17.50558081	     -3.65694526	     -0.11312359	     19.68343156	      0.34354069	    -16.13354575	      0.00000000	      0.00000000	    -30.02659345	      1.49111707	      7.91871323	      8.20644095	    -19.05456251	     20.70447599	     55.05335160	     75.57946264	      0.00000000	      0.00000000	     -1.59514316	    -20.94506267	     16.19982311	     49.30816263	     71.98959758	      0.00000000	      0.00000000
      0.60800000	     14.77779484	     -3.74442058	     -4.29834250	      0.94095583	      0.93006028	     -0.35711547	    -29.74907453	      2.67464871	     -0.51327773	     25.52994825	      0.44558165	     -6.77581223	      0.00000000	      0.00000000	     17.59696550	     -3.53939201	     -0.03367633	     20.33858062	      0.35497520	    -16.79603560	      0.00000000	      0.00000000	    -30.01275810	      1.35142543	      7.84956778	      8.10568879	    -18.98175639	     20.58455413	     54.86039692	     75.53252808	      0.00000000	      0.00000000	     -1.58328824	    -20.94744946	     16.16822435	     49.24718162	     72.01575053	      0.00000000	      0.00000000
      0.61200000	     14.78888810	     -3.59528129	     -4.25174614	      0.94739183	      0.92984394	     -0.35745852	    -29.74376809	      2.49925785	     -0.24168054	     26.09089758	      0.45537207	     -7.57582279	      0.00000000	      0.00000000	     17.72761167	     -3.30933381	      0.23664235	     21.10309802	      0.36831854	    -17.21952077	      0.00000000	      0.00000000	    -29.95547945	      1.17159841	      7.70226463	      7.97498159	    -18.87068630	     20.44559765	     54.63206777	     75.49026805	      0.00000000	      0.00000000	     -1.59052840	    -20.93941975	     16.11573446	     49.14987980	     72.03470651	      0.00000000	      0.00000000
      0.61600000	     14.59951561	     -3.39861421	     -3.63304062	      0.95496817	      0.92906852	     -0.35802368	    -29.74092909	      2.57190959	     -0.77289853	     26.33056072	      0.45955498	     -8.80077602	      0.00000000	      0.00000000	     18.31915825	     -2.88311182	      0.87172100	     22.39486845	      0.39086419	    -17.20146556	      0.00000000	      0.00000000	    -29.52230506	      1.17845373	      7.02815542	      7.58450243	    -18.58301455	     20.15622693	     54.38943156	     75.37120365	      0.00000000	      0.00000000	     -1.82545343	    -21.10773892	     16.04679483	     49.18223760	     72.10944331	      0.00000000	      0.00000000
      0.62000000	     14.62160189	     -3.24024421	     -3.49711625	      0.96172466	      0.92895213	     -0.35848584	    -29.73674017	      2.39798985	     -0.80367524	     26.88042796	      0.46915197	     -9.88077735	      0.00000000	      0.00000000	     18.42667859	     -2.56748812	      1.29005006	     23.25728844	      0.40591626	    -17.46500032	      0.00000000	      0.00000000	    -29.43405520	      1.04065320	      6.78628500	      7.42871155	    -18.45523995	     20.27753123	     53.95087711	     75.69429266	      0.00000000	      0.00000000	     -1.86396366	    -21.10923184	     16.05912615	     49.03997960	     72.17054381	      0.00000000	      0.00000000
      0.62400000	     14.63633929	     -3.05742319	     -3.42347448	      0.96867244	      0.92883393	     -0.35895803	    -29.73122234	      2.16471560	     -0.82942021	     27.40699906	      0.47834237	    -10.97380968	      0.00000000	      0.00000000	     18.50235910	     -2.25241311	      1.55366410	     24.12613007	      0.42108041	    -17.70752988	      0.00000000	      0.00000000	    -29.32624217	      0.84896061	      6.57322836	      7.23434467	    -18.33530170	     20.13269525	     53.65117980	     75.86296955	      0.00000000	      0.00000000	     -1.98909187	    -21.09893719	     15.94381256	     49.00953554	     72.19289590	      0.00000000	      0.00000000
      0.62800000	     14.67089268	     -2.84733880	     -3.46946308	      0.97559743	      0.92891147	     -0.35923218	    -29.72304827	      1.87299402	     -0.56650806	     27.96443717	      0.48807150	    -11.92912178	      0.00000000	      0.00000000	     18.44736663	     -1.92732441	      1.83070303	     24.83425308	      0.43343948	    -17.94394331	      0.00000000	      0.00000000	    -29.23943697	      0.56997058	      6.43829703	      7.04059244	    -18.20826619	     19.98556929	     53.36375672	     75.92091691	      0.00000000	      0.00000000	     -2.07002740	    -21.09793389	     15.87382616	     48.92154494	     72.20450926	      0.00000000	      0.00000000
      0.63200000	     14.69658745	     -2.66573560	     -3.27324271	      0.98295852	      0.92898216	     -0.35969110	    -29.72077439	      1.65868117	     -0.96254553	     28.43716771	      0.49632221	    -13.61881228	      0.00000000	      0.00000000	     18.44096658	     -1.58361225	      2.09652323	     25.67000283	      0.44802607	    -17.92647769	      0.00000000	      0.00000000	    -29.08933344	      0.42761541	      6.12805691	      6.76630171	    -18.00984364	     19.76525511	     53.01732872	     76.13554889	      0.00000000	      0.00000000	     -2.21527267	    -21.12566616	     15.79491270	     48.86572267	     72.24264023	      0.00000000	      0.00000000
      0.63600000	     14.72801634	     -2.50040160	     -3.07478855	      0.98993625	      0.92920024	     -0.36005542	    -29.71839849	      1.51871000	     -1.07591653	     28.86655181	      0.50381637	    -15.16335088	      0.00000000	      0.00000000	     18.37537615	     -1.24524146	      2.60410614	     26.37334716	      0.46030174	    -17.85067429	      0.00000000	      0.00000000	    -29.00614388	      0.28733052	      5.80786698	      6.57253524	    -17.81213682	     19.54013948	     52.66344849	     76.42351973	      0.00000000	      0.00000000	     -2.33713390	    -21.17303656	     15.72735654	     48.82390312	     72.26327435	      0.00000000	      0.00000000
      0.64000000	     14.82868393	     -2.30132514	     -2.87165296	      0.99698046	      0.92962269	     -0.36053869	    -29.71744173	      1.27658866	     -1.45017019	     29.40511299	      0.51321604	    -16.79198851	      0.00000000	      0.00000000	     18.23275046	     -0.89379020	      2.91541964	     27.06278295	      0.47233467	    -17.76515357	      0.00000000	      0.00000000	    -29.00461404	      0.11466397	      5.50634601	      6.41412819	    -17.59205776	     19.29088723	     52.20790184	     76.63874763	      0.00000000	      0.00000000	     -2.41048354	    -21.20878388	     15.68276991	     48.76093624	     72.25858680	      0.00000000	      0.00000000
      0.64400000	     14.94497319	     -2.15267887	     -2.75005124	      1.00379389	      0.93012297	     -0.36061864	    -29.71478618	      1.12833259	     -1.46199000	     29.97236424	      0.52311644	    -18.22443009	      0.00000000	      0.00000000	     18.03270818	     -0.61771611	      3.26670189	     27.69176420	      0.48331246	    -17.69394712	      0.00000000	      0.00000000	    -29.04157402	     -0.06712000	      5.26055313	      6.23862545	    -17.38088496	     19.07288490	     51.84551792	     76.72155917	      0.00000000	      0.00000000	     -2.47682713	    -21.30202160	     15.64803320	     48.72463756	     72.24280850	      0.00000000	      0.00000000
      0.64800000	     14.96670449	     -1.91051900	     -2.31216392	      1.01129945	      0.93041994	     -0.36147229	    -29.70916826	      0.90194387	     -2.35246608	     30.28229950	      0.52852583	    -20.47304880	      0.00000000	      0.00000000	     17.95520003	     -0.15451108	      3.64176746	     28.42005170	      0.49602348	    -17.08150022	      0.00000000	      0.00000000	    -28.88112359	     -0.15422776	      4.74024800	      5.94573682	    -17.17786267	     18.84102958	     51.45277518	     76.95743712	      0.00000000	      0.00000000	     -2.59849264	    -21.39184517	     15.74795309	     48.66046634	     72.24379988	      0.00000000	      0.00000000
      0.65200000	     15.06416274	     -1.72035943	     -2.08086024	      1.01833507	      0.93101457	     -0.36179234	    -29.69798267	      0.73023005	     -2.64889016	     30.71989106	      0.53616324	    -22.35096225	      0.00000000	      0.00000000	     17.72056940	      0.18556249	      3.92228378	     29.00548681	      0.50624125	    -16.81738023	      0.00000000	      0.00000000	    -28.86426496	     -0.31134763	      4.42339028	      5.74619996	    -16.95824153	     18.62525616	     51.03941331	     77.15593357	      0.00000000	      0.00000000	     -2.62917291	    -21.46901189	     15.79349503	     48.63979174	     72.22982708	      0.00000000	      0.00000000
